# Blender 4.2.1 LTS
# www.blender.org
mtllib Grabary lowpoly model.mtl
o grabary_Cube
v 2.739135 -0.042635 4.745162
v 2.739135 -0.042635 4.971513
v -2.739135 -0.042635 4.971513
v -2.739135 -0.042635 4.745162
v 2.739135 4.613894 4.745162
v 2.739132 4.613894 4.971513
v -2.739135 4.613894 4.971513
v -2.739135 4.613894 4.745162
v 0.000000 -0.042635 4.745162
v 0.000000 -0.042635 4.971513
v 0.000000 5.786849 4.745162
v -0.000003 5.786849 4.971513
v -2.356650 -0.003008 -3.961739
v -2.356650 -0.003008 5.092216
v -2.531952 -0.003008 5.092213
v -2.531952 -0.003008 -3.961739
v -2.356647 4.653520 -3.961737
v -2.356650 4.653521 5.092218
v -2.531952 4.653521 5.092213
v -2.531952 4.653520 -3.961739
v 2.568317 -0.003008 -3.961739
v 2.568317 -0.003008 5.092216
v 2.403969 -0.003008 5.092213
v 2.403969 -0.003008 -3.961739
v 2.568317 4.653520 -3.961737
v 2.568317 4.653521 5.092218
v 2.403969 4.653521 5.092213
v 2.403969 4.653520 -3.961739
v 2.568317 -0.003008 -0.702314
v 2.568317 4.653521 -0.702314
v 2.403969 4.653521 -0.702314
v 2.403969 -0.003008 -0.702317
v 2.403969 4.653521 1.470633
v 2.568317 4.653521 1.470636
v 2.403969 -0.003008 1.470633
v 2.568317 -0.003008 1.470633
v 2.568317 3.489388 -3.961736
v 2.568317 3.489389 5.092218
v 2.403969 3.489389 5.092213
v 2.403969 3.489388 -3.961739
v 2.568317 3.489388 1.470636
v 2.403969 3.489388 1.470633
v 2.568317 3.489388 -0.702314
v 2.403969 3.489388 -0.702314
v -3.271505 4.303856 -4.425754
v -3.271505 4.303857 5.556233
v -3.314676 4.404561 5.556230
v -3.314676 4.404560 -4.425759
v 0.023965 5.716609 -4.425748
v 0.023965 5.716612 5.556233
v -0.019204 5.817314 5.556228
v -0.019204 5.817313 -4.425754
v 4.798912 3.627140 5.576357
v 4.798914 3.627139 -4.494830
v 4.842086 3.727841 -4.494830
v 4.842083 3.727841 5.576360
v -0.027715 5.716609 5.576357
v -0.027715 5.716611 -4.494835
v 0.015457 5.817313 -4.494830
v 0.015454 5.817314 5.576357
v 2.341672 -0.031928 -0.472736
v 2.341672 3.588112 -0.472736
v 2.341672 -0.031928 -0.695943
v 2.341672 3.588112 -0.695943
v 2.615586 -0.031928 -0.472736
v 2.615586 3.588112 -0.472736
v 2.615586 -0.031928 -0.695943
v 2.615586 3.588112 -0.695943
v -3.353547 4.375350 -4.373688
v -3.353547 4.375351 5.504168
v -3.379870 4.431914 5.504165
v -3.379870 4.431913 -4.373694
v 0.023965 5.834507 -4.373686
v 0.023965 5.834507 5.504170
v -0.019204 5.882710 5.504164
v -0.019204 5.882710 -4.373689
v 4.930305 3.685557 5.523827
v 4.930305 3.685557 -4.442304
v 4.958357 3.733760 -4.442304
v 4.958354 3.733761 5.523829
v -0.027715 5.834507 5.523827
v -0.027715 5.834507 -4.442307
v 0.015457 5.882710 -4.442304
v 0.015454 5.882710 5.523826
v -0.017626 5.977142 5.494424
v 4.953585 3.783816 5.494424
v -0.017626 5.977142 5.606028
v 4.953585 3.783816 5.606028
v -0.176061 5.732888 5.494424
v 4.846556 3.531676 5.494424
v -0.176061 5.732888 5.606028
v 4.846556 3.531676 5.606028
v 2.736727 -0.042635 -3.823555
v 2.736727 -0.042635 -3.597204
v -2.766652 -0.042635 -3.597204
v -2.766652 -0.042635 -3.823555
v 2.736730 4.613894 -3.823555
v 2.736727 4.613894 -3.597204
v -2.766654 4.613894 -3.597204
v -2.766652 4.613894 -3.823555
v -0.014961 -0.042635 -3.823555
v -0.014961 -0.042635 -3.597204
v -0.014961 5.786848 -3.823555
v -0.014964 5.786848 -3.597204
v 2.341672 -0.031928 1.551827
v 2.341672 3.588112 1.551826
v 2.341672 -0.031928 1.328620
v 2.341672 3.588112 1.328620
v 2.615586 -0.031928 1.551827
v 2.615586 3.588112 1.551826
v 2.615586 -0.031928 1.328620
v 2.615586 3.588112 1.328620
v 2.312922 3.676329 1.680160
v 2.312922 3.676329 -0.853868
v 2.312922 3.453122 1.680160
v 2.312922 3.453122 -0.853868
v 2.644336 3.676329 1.680160
v 2.644336 3.676329 -0.853868
v 2.644336 3.453122 1.680160
v 2.644336 3.453122 -0.853868
v 4.846556 3.531675 -4.433328
v -0.176061 5.732887 -4.437302
v 4.846556 3.531675 -4.519145
v -0.176061 5.732887 -4.523117
v 4.953585 3.783815 -4.433328
v -0.069034 5.985024 -4.437303
v 4.953585 3.783815 -4.519145
v -0.069034 5.985024 -4.523117
v -0.031829 5.926596 -4.346212
v -3.392259 4.525961 -4.348116
v -0.031432 5.926596 -4.457816
v -3.391862 4.525961 -4.458541
v 0.075200 5.674459 -4.345831
v -3.285233 4.273821 -4.347741
v 0.075595 5.674459 -4.457435
v -3.284836 4.273821 -4.458166
v -3.320516 4.273822 5.512284
v 0.071102 5.714815 5.476297
v -3.320820 4.273822 5.607721
v 0.070798 5.714815 5.562114
v -3.427542 4.525962 5.511859
v -0.035924 5.966955 5.475915
v -3.427846 4.525962 5.607296
v -0.036228 5.966955 5.561733
v -0.099822 5.904829 5.520024
v -0.099822 5.904828 -4.471764
v -0.099822 5.681623 5.520024
v -0.099822 5.681622 -4.471763
v 0.078408 5.904829 5.520024
v 0.078408 5.904828 -4.471764
v 0.078408 5.681623 5.520024
v 0.078408 5.681622 -4.471763
v 4.503490 -0.031928 4.664648
v 4.503490 3.719980 4.664648
v 4.503490 -0.031928 4.441441
v 4.503490 3.719980 4.441441
v 4.777404 -0.031928 4.664648
v 4.777404 3.719980 4.664648
v 4.777404 -0.031928 4.441441
v 4.777404 3.719980 4.441441
v 4.503490 -0.031928 -3.410765
v 4.503490 3.719980 -3.410765
v 4.503490 -0.031928 -3.633971
v 4.503490 3.719980 -3.633971
v 4.777404 -0.031928 -3.410765
v 4.777404 3.719980 -3.410765
v 4.777404 -0.031928 -3.633971
v 4.777404 3.719980 -3.633971
v 4.676223 3.687502 4.639708
v 2.498989 3.649152 4.767480
v 4.677918 3.465147 4.628412
v 2.500685 3.426797 4.756181
v 4.647229 3.715948 4.478203
v 2.469995 3.677598 4.605975
v 4.648925 3.493591 4.466907
v 2.471691 3.455240 4.594679
v 4.674621 3.687501 -3.428750
v 2.494442 3.649151 -3.390649
v 4.676716 3.465147 -3.439981
v 2.496538 3.426796 -3.401879
v 4.651379 3.715948 -3.591181
v 2.471198 3.677597 -3.553079
v 4.653472 3.493590 -3.602411
v 2.473293 3.455239 -3.564310
v 4.538913 3.819169 -1.774573
v 4.538913 2.493461 -3.581588
v 4.538913 3.749913 -1.395740
v 4.538913 2.269216 -3.510864
v 4.690269 3.819169 -1.774573
v 4.690269 2.493461 -3.581588
v 4.690269 3.749913 -1.395740
v 4.690269 2.269216 -3.510864
v 4.688513 3.819170 2.765370
v 4.692526 2.493461 4.572382
v 4.687673 3.749913 2.386539
v 4.692368 2.269217 4.501658
v 4.537157 3.819170 2.765707
v 4.541170 2.493461 4.572719
v 4.536316 3.749913 2.386876
v 4.541011 2.269217 4.501995
v 2.471182 4.622469 -3.104297
v -2.414248 4.584119 -3.066196
v 2.475876 4.400112 -3.115528
v -2.409551 4.361762 -3.077426
v 2.419100 4.650915 -3.266728
v -2.466331 4.612565 -3.228626
v 2.423795 4.428558 -3.277958
v -2.461636 4.390207 -3.239857
v 2.471182 4.622470 0.750093
v -2.414248 4.584119 0.788194
v 2.475876 4.400112 0.738865
v -2.409551 4.361762 0.776966
v 2.419100 4.650916 0.587662
v -2.466331 4.612565 0.625763
v 2.423795 4.428558 0.576434
v -2.461636 4.390207 0.614533
v 2.471182 4.622470 4.293955
v -2.414248 4.584120 4.332057
v 2.475876 4.400113 4.282724
v -2.409551 4.361762 4.320826
v 2.419100 4.650916 4.131525
v -2.466331 4.612566 4.169625
v 2.423795 4.428558 4.120294
v -2.461636 4.390208 4.158395
vn -0.0000 -1.0000 -0.0000
vn -0.3936 0.9193 -0.0000
vn 1.0000 -0.0000 -0.0000
vn -0.0000 -0.0000 1.0000
vn -1.0000 -0.0000 -0.0000
vn -0.0000 -0.0000 -1.0000
vn 0.3936 0.9193 -0.0000
vn -0.0000 1.0000 -0.0000
vn -0.9191 -0.3940 -0.0000
vn 0.9191 0.3940 -0.0000
vn 0.3940 -0.9191 -0.0000
vn -0.3940 0.9191 -0.0000
vn 0.9191 -0.3940 -0.0000
vn -0.9191 0.3940 -0.0000
vn -0.3973 -0.9177 -0.0000
vn 0.3973 0.9177 -0.0000
vn -0.9066 -0.4219 -0.0000
vn 0.7449 0.6671 -0.0000
vn 0.3966 -0.9180 -0.0000
vn -0.0000 0.0001 1.0000
vn -0.3963 0.9181 -0.0000
vn -0.0000 -0.0001 -1.0000
vn 0.8643 -0.5030 -0.0000
vn -0.7449 0.6671 -0.0000
vn -0.3977 -0.9175 -0.0000
vn 0.3987 0.9171 -0.0000
vn 0.9205 -0.3907 -0.0000
vn -0.4014 -0.9159 -0.0000
vn -0.8390 0.5442 -0.0000
vn 0.4037 0.9149 -0.0000
vn -0.3921 0.9199 -0.0000
vn 0.3921 0.9199 -0.0000
vn 0.0007 -0.0003 -1.0000
vn -0.0007 0.0003 1.0000
vn -0.9205 0.3907 -0.0000
vn 0.4014 0.9159 -0.0000
vn -0.9205 -0.3907 -0.0033
vn -0.0010 0.0011 1.0000
vn 0.3847 -0.9230 0.0014
vn 0.0007 -0.0012 -1.0000
vn 0.9205 0.3907 0.0033
vn -0.3847 0.9230 -0.0014
vn 0.3911 -0.9204 0.0013
vn -0.9205 -0.3907 -0.0029
vn 0.0108 0.0062 0.9999
vn -0.0084 -0.0052 -1.0000
vn -0.3911 0.9204 -0.0013
vn 0.0594 -0.0502 0.9970
vn 0.0071 -0.9846 -0.1747
vn -0.0594 0.0502 -0.9970
vn -0.0071 0.9846 0.1747
vn 0.9846 0.0163 -0.1739
vn -0.9846 -0.0163 0.1739
vn 0.0183 -0.0503 0.9986
vn 0.0143 -0.9846 -0.1744
vn -0.0183 0.0503 -0.9986
vn -0.0143 0.9846 0.1745
vn 0.9902 0.0163 -0.1388
vn -0.9902 -0.0163 0.1388
vn -0.0000 -0.8192 0.5735
vn -0.0000 0.8063 -0.5915
vn -0.0000 0.9837 0.1798
vn -0.0000 -0.3008 -0.9537
vn 1.0000 -0.0000 -0.0022
vn -0.0013 -0.8192 -0.5735
vn -1.0000 -0.0000 0.0022
vn 0.0013 0.8063 0.5915
vn -0.0004 0.9837 -0.1798
vn 0.0021 -0.3008 0.9537
vn 0.0082 -0.0503 0.9987
vn 0.0064 -0.9846 -0.1745
vn -0.0082 0.0503 -0.9987
vn -0.0064 0.9846 0.1745
vn 0.9534 0.0353 -0.2995
vn -0.9534 -0.0353 0.2995
vt 0.631647 0.025892
vt 0.631647 0.034710
vt 0.524943 0.034710
vt 0.524943 0.025892
vt 0.494721 0.013959
vt 0.396875 0.013959
vt 0.396875 0.006527
vt 0.494721 0.006527
vt 0.813112 0.339690
vt 0.813113 0.002276
vt 0.828331 0.002276
vt 0.828331 0.339690
vt 0.638674 0.010664
vt 0.638674 0.418825
vt 0.501732 0.337900
vt 0.501732 0.010664
vt 0.829846 0.020825
vt 0.829846 0.354060
vt 0.813647 0.354060
vt 0.813647 0.020825
vt 0.640514 0.425964
vt 0.640514 0.009914
vt 0.794613 0.009914
vt 0.793527 0.336265
vt 0.486416 0.342251
vt 0.486416 0.009914
vt 0.775615 0.010664
vt 0.775615 0.337900
vt 0.592565 0.013959
vt 0.592565 0.006527
vt 0.738353 0.025892
vt 0.738353 0.034710
vt 0.409019 0.033832
vt 0.074099 0.033832
vt 0.077304 0.027839
vt 0.405816 0.027864
vt 0.508438 0.047126
vt 0.511370 0.050102
vt 0.511355 0.355310
vt 0.508338 0.358468
vt 0.016887 0.348014
vt 0.016887 0.017945
vt 0.454309 0.017945
vt 0.454309 0.348014
vt 0.809356 0.375879
vt 0.808935 0.052678
vt 0.822175 0.052001
vt 0.822417 0.376723
vt 0.017280 0.346610
vt 0.017280 0.016541
vt 0.454702 0.016541
vt 0.454702 0.346610
vt 0.017588 0.017258
vt 0.015847 0.346335
vt 0.001507 0.346875
vt 0.003246 0.016418
vt 0.161124 0.036008
vt 0.074841 0.032351
vt 0.075007 0.024920
vt 0.161290 0.028577
vt 0.515796 0.000377
vt 0.515796 0.005774
vt 0.396875 0.005771
vt 0.396875 0.000374
vt 0.182805 0.259815
vt 0.182805 0.341148
vt 0.008132 0.341148
vt 0.008132 0.259815
vt 0.456692 0.259985
vt 0.456692 0.341869
vt 0.443935 0.341869
vt 0.443935 0.259985
vt 0.286902 0.097169
vt 0.286902 0.015452
vt 0.439063 0.015452
vt 0.439063 0.097169
vt 0.813354 0.292671
vt 0.813354 0.051118
vt 0.825228 0.051118
vt 0.825228 0.292671
vt 0.694180 0.000381
vt 0.694180 0.005778
vt 0.587150 0.005775
vt 0.587150 0.000379
vt 0.444816 0.259815
vt 0.444816 0.341148
vt 0.287609 0.341148
vt 0.287609 0.259815
vt 0.276493 0.260529
vt 0.276494 0.017221
vt 0.286725 0.017221
vt 0.286724 0.260529
vt 0.016393 0.097169
vt 0.016393 0.015453
vt 0.185461 0.015453
vt 0.185461 0.097169
vt 0.418066 0.038262
vt 0.252003 0.039430
vt 0.251944 0.023537
vt 0.418008 0.022370
vt 0.016393 0.342317
vt 0.185461 0.342317
vt 0.444816 0.015816
vt 0.287610 0.015816
vt 0.813354 0.373189
vt 0.825228 0.373189
vt 0.286902 0.342317
vt 0.439063 0.342317
vt 0.456692 0.014332
vt 0.443935 0.014332
vt 0.182805 0.015816
vt 0.008132 0.015816
vt 0.227358 0.024974
vt 0.332987 0.024974
vt 0.332987 0.032963
vt 0.227357 0.032963
vt 0.191433 0.260420
vt 0.182782 0.260420
vt 0.182783 0.014772
vt 0.191434 0.014772
vt 0.454194 0.021336
vt 0.011823 0.021337
vt 0.011823 0.014706
vt 0.454194 0.014698
vt 0.454194 0.238329
vt 0.454194 0.244960
vt 0.011824 0.244961
vt 0.011823 0.238329
vt 0.006968 0.238329
vt 0.006968 0.021337
vt 0.258574 0.684978
vt 0.258574 0.567240
vt 0.586354 0.567240
vt 0.586354 0.684978
vt 0.459050 0.021336
vt 0.459050 0.238329
vt 0.008674 0.415782
vt 0.460489 0.415782
vt 0.460489 0.421454
vt 0.008674 0.421451
vt 0.008674 0.143541
vt 0.008674 0.137870
vt 0.460489 0.137872
vt 0.460490 0.143541
vt 0.465405 0.143521
vt 0.465405 0.415762
vt 0.511038 0.359217
vt 0.511038 0.531924
vt 0.180329 0.531924
vt 0.180329 0.359217
vt 0.003759 0.415762
vt 0.003760 0.143521
vt 0.997902 0.464744
vt 0.997902 0.958510
vt 0.978689 0.958510
vt 0.978688 0.464744
vt 0.955110 0.958510
vt 0.955110 0.464744
vt 0.935897 0.958510
vt 0.935897 0.464744
vt 0.912319 0.958510
vt 0.912319 0.464744
vt 0.950909 0.088049
vt 0.950909 0.060270
vt 0.973544 0.060270
vt 0.973544 0.088049
vt 0.978687 0.112997
vt 0.950909 0.112997
vt 0.950909 0.090362
vt 0.978687 0.090362
vt 0.050148 0.463170
vt 0.797218 0.463172
vt 0.797218 0.468051
vt 0.050147 0.468051
vt 0.749999 0.025769
vt 0.749999 0.027895
vt 0.425530 0.027897
vt 0.425530 0.025774
vt 0.746658 0.487782
vt 0.746658 0.717257
vt 0.130573 0.717256
vt 0.130573 0.487782
vt 0.801933 0.468188
vt 0.801859 0.755908
vt 0.797217 0.754302
vt 0.050148 0.754302
vt 0.045505 0.755908
vt 0.045431 0.468188
vt 0.042086 0.459423
vt 0.805070 0.459409
vt 0.800025 0.463903
vt 0.047131 0.463926
vt 0.425530 0.025013
vt 0.425530 0.022890
vt 0.752514 0.022890
vt 0.752514 0.025020
vt 0.777397 0.481097
vt 0.777397 0.850213
vt 0.096630 0.850213
vt 0.096631 0.481097
vt 0.804810 0.927507
vt 0.800097 0.925756
vt 0.047133 0.925779
vt 0.042456 0.927507
vt 0.934898 0.457203
vt 0.934898 0.950968
vt 0.911320 0.950968
vt 0.911320 0.457203
vt 0.954112 0.457203
vt 0.954112 0.950968
vt 0.892106 0.457203
vt 0.892107 0.950968
vt 0.868528 0.950968
vt 0.868528 0.457203
vt 0.342997 0.429636
vt 0.245151 0.429636
vt 0.245151 0.422204
vt 0.342997 0.422204
vt 0.440841 0.429636
vt 0.440841 0.422204
vt 0.954112 0.357499
vt 0.954112 0.771651
vt 0.934898 0.771651
vt 0.934898 0.357499
vt 0.911320 0.771651
vt 0.911320 0.357499
vt 0.892107 0.771651
vt 0.892106 0.357499
vt 0.868528 0.771651
vt 0.868528 0.357499
vt 0.970533 0.250621
vt 0.970533 0.908694
vt 0.951320 0.908694
vt 0.951319 0.250621
vt 0.927741 0.908694
vt 0.927741 0.250621
vt 0.908528 0.250621
vt 0.908528 0.908694
vt 0.884950 0.908694
vt 0.884950 0.250621
vt 0.892106 0.005680
vt 0.892107 0.950026
vt 0.868528 0.950026
vt 0.868528 0.005680
vt 0.967796 0.324783
vt 0.967796 0.857155
vt 0.948583 0.857155
vt 0.948583 0.324783
vt 0.925004 0.857155
vt 0.925004 0.324783
vt 0.905791 0.857155
vt 0.905791 0.324783
vt 0.882213 0.857155
vt 0.882213 0.324783
s 0
usemtl grabary.001
f 9/1/1 10/2/1 3/3/1 4/4/1
f 11/5/2 8/6/2 7/7/2 12/8/2
f 1/9/3 5/10/3 6/11/3 2/12/3
f 10/13/4 12/14/4 7/15/4 3/16/4
f 3/17/5 7/18/5 8/19/5 4/20/5
f 11/21/6 9/22/6 4/23/6 8/24/6
f 5/25/6 1/26/6 9/22/6 11/21/6
f 2/27/4 6/28/4 12/14/4 10/13/4
f 5/29/7 11/5/7 12/8/7 6/30/7
f 1/31/1 2/32/1 10/2/1 9/1/1
f 13/33/1 14/34/1 15/35/1 16/36/1
f 17/37/8 20/38/8 19/39/8 18/40/8
f 13/41/3 17/42/3 18/43/3 14/44/3
f 14/45/4 18/46/4 19/47/4 15/48/4
f 15/49/5 19/50/5 20/51/5 16/52/5
f 17/53/6 13/54/6 16/55/6 20/56/6
f 36/57/1 22/58/1 23/59/1 35/60/1
f 34/61/8 33/62/8 27/63/8 26/64/8
f 41/65/3 34/66/3 26/67/3 38/68/3
f 38/69/4 26/70/4 27/71/4 39/72/4
f 44/73/5 31/74/5 28/75/5 40/76/5
f 37/77/6 21/78/6 24/79/6 40/80/6
f 25/81/8 28/82/8 31/83/8 30/84/8
f 37/85/3 25/86/3 30/87/3 43/88/3
f 44/89/4 32/90/4 29/91/4 43/92/4
f 30/84/8 31/83/8 33/62/8 34/61/8
f 43/88/3 30/87/3 34/66/3 41/65/3
f 39/93/5 27/94/5 33/95/5 42/96/5
f 21/97/1 29/98/1 32/99/1 24/100/1
f 42/96/5 33/95/5 31/74/5 44/73/5
f 23/101/5 39/93/5 42/96/5 35/102/5
f 21/103/3 37/85/3 43/88/3 29/104/3
f 25/105/6 37/77/6 40/80/6 28/106/6
f 32/107/5 44/73/5 40/76/5 24/108/5
f 22/109/4 38/69/4 39/72/4 23/110/4
f 36/111/3 41/65/3 38/68/3 22/112/3
f 42/113/1 44/114/1 43/115/1 41/116/1
f 42/117/6 41/118/6 36/119/6 35/120/6
f 45/121/9 46/122/9 47/123/9 48/124/9
f 49/125/10 52/126/10 51/127/10 50/128/10
f 45/121/11 49/125/11 50/128/11 46/122/11
f 46/122/4 50/128/4 51/129/4 47/130/4
f 47/131/12 51/132/12 52/133/12 48/134/12
f 49/125/6 45/121/6 48/135/6 52/136/6
f 53/137/13 54/138/13 55/139/13 56/140/13
f 57/141/14 60/142/14 59/143/14 58/144/14
f 53/137/15 57/141/15 58/144/15 54/138/15
f 54/138/6 58/144/6 59/145/6 55/146/6
f 55/147/16 59/148/16 60/149/16 56/150/16
f 57/141/4 53/137/4 56/151/4 60/152/4
f 61/153/5 62/154/5 64/155/5 63/156/5
f 63/156/6 64/155/6 68/157/6 67/158/6
f 67/158/3 68/157/3 66/159/3 65/160/3
f 65/160/4 66/159/4 62/161/4 61/162/4
f 63/163/1 67/164/1 65/165/1 61/166/1
f 68/167/8 64/168/8 62/169/8 66/170/8
f 69/171/17 70/172/17 71/173/17 72/174/17
f 73/175/18 76/176/18 75/177/18 74/178/18
f 69/179/19 73/180/19 74/181/19 70/182/19
f 70/183/20 74/184/20 75/185/20 71/173/20
f 71/173/21 75/185/21 76/186/21 72/174/21
f 73/187/22 69/188/22 72/174/22 76/186/22
f 77/189/23 78/190/23 79/191/23 80/192/23
f 81/193/24 84/194/24 83/195/24 82/196/24
f 77/197/25 81/198/25 82/199/25 78/200/25
f 78/190/6 82/201/6 83/202/6 79/191/6
f 79/191/26 83/202/26 84/203/26 80/192/26
f 81/204/4 77/189/4 80/192/4 84/203/4
f 90/163/27 86/164/27 88/165/27 92/166/27
f 90/205/6 89/206/6 85/207/6 86/208/6
f 92/209/28 91/210/28 89/206/28 90/205/28
f 88/211/4 87/212/4 91/213/4 92/214/4
f 85/167/29 89/168/29 91/169/29 87/170/29
f 86/208/30 85/207/30 87/212/30 88/211/30
f 101/1/1 102/2/1 95/3/1 96/4/1
f 103/215/31 100/216/31 99/217/31 104/218/31
f 93/9/3 97/10/3 98/11/3 94/12/3
f 102/13/4 104/14/4 99/15/4 95/16/4
f 95/17/5 99/18/5 100/19/5 96/20/5
f 103/21/6 101/22/6 96/23/6 100/24/6
f 97/25/6 93/26/6 101/22/6 103/21/6
f 94/27/4 98/28/4 104/14/4 102/13/4
f 97/219/32 103/215/32 104/218/32 98/220/32
f 93/31/1 94/32/1 102/2/1 101/1/1
f 105/209/5 106/210/5 108/206/5 107/205/5
f 107/205/6 108/206/6 112/207/6 111/208/6
f 111/208/3 112/207/3 110/212/3 109/211/3
f 109/211/4 110/212/4 106/213/4 105/214/4
f 107/163/1 111/164/1 109/165/1 105/166/1
f 112/167/8 108/168/8 106/169/8 110/170/8
f 113/221/5 114/222/5 116/223/5 115/224/5
f 115/224/1 116/223/1 120/225/1 119/226/1
f 119/226/3 120/225/3 118/227/3 117/228/3
f 117/228/8 118/227/8 114/229/8 113/230/8
f 115/163/4 119/164/4 117/165/4 113/166/4
f 120/167/6 116/168/6 114/169/6 118/170/6
f 121/231/28 122/232/28 124/233/28 123/234/28
f 123/163/27 127/164/27 125/165/27 121/166/27
f 123/234/33 124/233/33 128/235/33 127/236/33
f 125/237/34 126/238/34 122/239/34 121/240/34
f 128/167/35 124/168/35 122/169/35 126/170/35
f 127/236/36 128/235/36 126/238/36 125/237/36
f 134/163/37 130/164/37 132/165/37 136/166/37
f 134/205/38 133/206/38 129/207/38 130/208/38
f 136/209/39 135/210/39 133/206/39 134/205/39
f 132/211/40 131/212/40 135/213/40 136/214/40
f 129/167/41 133/168/41 135/169/41 131/170/41
f 130/208/42 129/207/42 131/212/42 132/211/42
f 137/231/43 138/232/43 140/233/43 139/234/43
f 139/163/44 143/164/44 141/165/44 137/166/44
f 139/234/45 140/233/45 144/235/45 143/236/45
f 141/237/46 142/238/46 138/239/46 137/240/46
f 144/167/41 140/168/41 138/169/41 142/170/41
f 143/236/47 144/235/47 142/238/47 141/237/47
f 145/221/5 146/222/5 148/223/5 147/224/5
f 147/224/1 148/223/1 152/225/1 151/226/1
f 151/226/3 152/225/3 150/227/3 149/228/3
f 149/241/8 150/242/8 146/243/8 145/244/8
f 147/163/4 151/164/4 149/165/4 145/166/4
f 152/167/6 148/168/6 146/169/6 150/170/6
f 153/209/5 154/210/5 156/206/5 155/205/5
f 155/205/6 156/206/6 160/207/6 159/208/6
f 159/208/3 160/207/3 158/212/3 157/211/3
f 157/211/4 158/212/4 154/213/4 153/214/4
f 155/163/1 159/164/1 157/165/1 153/166/1
f 160/167/8 156/168/8 154/169/8 158/170/8
f 161/245/5 162/246/5 164/247/5 163/248/5
f 163/248/6 164/247/6 168/249/6 167/250/6
f 167/250/3 168/249/3 166/251/3 165/252/3
f 165/252/4 166/251/4 162/253/4 161/254/4
f 163/163/1 167/164/1 165/165/1 161/166/1
f 168/167/8 164/168/8 162/169/8 166/170/8
f 169/221/48 170/222/48 172/223/48 171/224/48
f 171/224/49 172/223/49 176/225/49 175/226/49
f 175/226/50 176/225/50 174/227/50 173/228/50
f 173/228/51 174/227/51 170/229/51 169/230/51
f 171/163/52 175/164/52 173/165/52 169/166/52
f 176/167/53 172/168/53 170/169/53 174/170/53
f 177/221/54 178/222/54 180/223/54 179/224/54
f 179/224/55 180/223/55 184/225/55 183/226/55
f 183/226/56 184/225/56 182/227/56 181/228/56
f 181/228/57 182/227/57 178/229/57 177/230/57
f 179/163/58 183/164/58 181/165/58 177/166/58
f 184/167/59 180/168/59 178/169/59 182/170/59
f 185/221/5 186/222/5 188/223/5 187/224/5
f 187/224/60 188/223/60 192/225/60 191/226/60
f 191/226/3 192/225/3 190/227/3 189/228/3
f 189/228/61 190/227/61 186/229/61 185/230/61
f 187/163/62 191/164/62 189/165/62 185/166/62
f 192/167/63 188/168/63 186/169/63 190/170/63
f 193/221/64 194/222/64 196/223/64 195/224/64
f 195/224/65 196/223/65 200/225/65 199/226/65
f 199/226/66 200/225/66 198/227/66 197/228/66
f 197/228/67 198/227/67 194/229/67 193/230/67
f 195/163/68 199/164/68 197/165/68 193/166/68
f 200/167/69 196/168/69 194/169/69 198/170/69
f 201/221/70 202/222/70 204/223/70 203/224/70
f 203/224/71 204/223/71 208/225/71 207/226/71
f 207/226/72 208/225/72 206/227/72 205/228/72
f 205/228/73 206/227/73 202/229/73 201/230/73
f 203/163/74 207/164/74 205/165/74 201/166/74
f 208/167/75 204/168/75 202/169/75 206/170/75
f 209/221/70 210/222/70 212/223/70 211/224/70
f 211/224/71 212/223/71 216/225/71 215/226/71
f 215/226/72 216/225/72 214/227/72 213/228/72
f 213/228/73 214/227/73 210/229/73 209/230/73
f 211/163/74 215/164/74 213/165/74 209/166/74
f 216/167/75 212/168/75 210/169/75 214/170/75
f 217/221/70 218/222/70 220/223/70 219/224/70
f 219/224/71 220/223/71 224/225/71 223/226/71
f 223/226/72 224/225/72 222/227/72 221/228/72
f 221/228/73 222/227/73 218/229/73 217/230/73
f 219/163/74 223/164/74 221/165/74 217/166/74
f 224/167/75 220/168/75 218/169/75 222/170/75
